<?xml version="1.0" encoding="UTF-8" standalone="no" ?>
<!DOCTYPE svg PUBLIC "-//W3C//DTD SVG 1.1//EN" "http://www.w3.org/Graphics/SVG/1.1/DTD/svg11.dtd">
<svg xmlns="http://www.w3.org/2000/svg" xmlns:xlink="http://www.w3.org/1999/xlink" version="1.1" width="1280" height="1024" viewBox="0 0 1280 1024" xml:space="preserve">
<desc>Created with Fabric.js 5.3.0</desc>
<defs>
</defs>
<g transform="matrix(1 0 0 1 640 512)" id="background-logo"  >
<rect style="stroke: none; stroke-width: 0; stroke-dasharray: none; stroke-linecap: butt; stroke-dashoffset: 0; stroke-linejoin: miter; stroke-miterlimit: 4; fill: rgb(255,255,255); fill-rule: nonzero; opacity: 1;"  paint-order="stroke"  x="-640" y="-512" rx="0" ry="0" width="1280" height="1024" />
</g>
<g transform="matrix(1.9211538461538462 0 0 1.9211538461538462 640.0881014533654 400.6425388357234)" id="logo-logo"  >
<g style=""  paint-order="stroke"   >
		<g transform="matrix(0.8278313969573258 0 0 0.8278313969573259 0 -2.842171e-14)"  >
<path style="stroke: none; stroke-width: 1; stroke-dasharray: none; stroke-linecap: butt; stroke-dashoffset: 0; stroke-linejoin: miter; stroke-miterlimit: 4; fill: rgb(153,0,0); fill-rule: nonzero; opacity: 1;"  paint-order="stroke"  transform=" translate(-117.28007821207673, -100.39849437116155)" d="M 101.23 0.77 C 101.24000000000001 0.75 101.25 0.73 101.26 0.71 L 101.26 0.71 L 101.28 0.6799999999999999 L 101.3 0.6499999999999999 L 101.3 0.6499999999999999 C 101.31 0.6299999999999999 101.33 0.6099999999999999 101.34 0.5899999999999999 L 101.36 0.5699999999999998 L 101.36 0.5699999999999998 L 101.38 0.5499999999999998 L 101.38 0.5499999999999998 L 101.39999999999999 0.5299999999999998 L 101.39999999999999 0.5199999999999998 L 101.41 0.5099999999999998 L 101.42999999999999 0.48999999999999977 L 101.44999999999999 0.46999999999999975 L 101.46 0.45999999999999974 L 101.46 0.45999999999999974 L 101.47999999999999 0.4399999999999997 L 101.49999999999999 0.4199999999999997 L 101.50999999999999 0.4099999999999997 L 101.52999999999999 0.3899999999999997 L 101.53999999999999 0.37999999999999967 L 101.55999999999999 0.35999999999999965 L 101.57 0.34999999999999964 L 101.58999999999999 0.3299999999999996 L 101.6 0.3299999999999996 L 101.61999999999999 0.3099999999999996 L 101.63 0.3099999999999996 L 101.64999999999999 0.2899999999999996 L 101.64999999999999 0.2899999999999996 L 101.66999999999999 0.2699999999999996 L 101.66999999999999 0.2699999999999996 L 101.68999999999998 0.24999999999999958 L 101.68999999999998 0.24999999999999958 L 101.71999999999998 0.2299999999999996 L 101.71999999999998 0.2299999999999996 L 101.74999999999999 0.2099999999999996 L 101.74999999999999 0.2099999999999996 L 101.77999999999999 0.1899999999999996 L 101.77999999999999 0.1899999999999996 L 101.80999999999999 0.16999999999999962 L 101.80999999999999 0.16999999999999962 L 101.83999999999999 0.15999999999999961 L 101.83999999999999 0.15999999999999961 L 101.86999999999999 0.1499999999999996 L 101.88 0.1499999999999996 L 101.89999999999999 0.1399999999999996 L 101.91 0.1399999999999996 L 101.92999999999999 0.1299999999999996 L 101.94 0.1199999999999996 L 101.96 0.1099999999999996 L 101.96 0.1099999999999996 L 101.99 0.0999999999999996 C 102.14999999999999 0.039999999999999605 102.32 0.009999999999999606 102.49 0.009999999999999606 L 102.52 0.009999999999999606 L 102.52 0.009999999999999606 L 102.55 0.009999999999999606 L 102.55 0.009999999999999606 L 102.58 0.009999999999999606 L 102.61 0.009999999999999606 L 102.61 0.009999999999999606 L 102.61 0.009999999999999606 C 102.72 0.01999999999999961 102.83 0.039999999999999605 102.94 0.07999999999999961 L 102.94 0.07999999999999961 L 102.97 0.08999999999999961 L 102.98 0.08999999999999961 L 103.01 0.0999999999999996 L 103.01 0.0999999999999996 C 103.03 0.1099999999999996 103.05000000000001 0.11999999999999961 103.07000000000001 0.12999999999999962 L 103.09 0.13999999999999962 L 103.10000000000001 0.13999999999999962 L 103.12 0.14999999999999963 C 103.14 0.15999999999999964 103.16000000000001 0.16999999999999962 103.18 0.17999999999999963 L 103.18 0.17999999999999963 L 103.21000000000001 0.19999999999999962 L 103.24000000000001 0.2199999999999996 L 103.24000000000001 0.2199999999999996 C 103.26 0.22999999999999962 103.28000000000002 0.2499999999999996 103.30000000000001 0.2599999999999996 L 103.32000000000001 0.27999999999999964 L 103.32000000000001 0.27999999999999964 L 103.34 0.29999999999999966 L 103.34 0.29999999999999966 L 103.36 0.3199999999999997 L 103.37 0.3199999999999997 L 103.38000000000001 0.3299999999999997 L 103.4 0.3499999999999997 L 103.42 0.3699999999999997 L 103.43 0.3799999999999997 L 103.43 0.3799999999999997 L 103.45 0.39999999999999974 L 103.47 0.41999999999999976 L 103.48 0.42999999999999977 L 103.5 0.4499999999999998 L 103.51 0.4599999999999998 L 103.53 0.4799999999999998 L 103.54 0.4899999999999998 L 103.56 0.5099999999999998 L 103.56 0.5199999999999998 L 103.58 0.5399999999999998 L 103.58 0.5499999999999998 L 103.6 0.5699999999999998 L 103.6 0.5699999999999998 L 103.61999999999999 0.5899999999999999 L 103.61999999999999 0.5899999999999999 L 103.63999999999999 0.6099999999999999 L 103.63999999999999 0.6099999999999999 L 103.65999999999998 0.6399999999999999 L 103.65999999999998 0.6399999999999999 L 103.67999999999998 0.6699999999999999 L 103.67999999999998 0.6699999999999999 L 103.69999999999997 0.7 L 103.69999999999997 0.7 L 103.71999999999997 0.73 L 103.71999999999997 0.73 L 103.72999999999998 0.76 L 103.72999999999998 0.76 L 103.73999999999998 0.79 L 103.73999999999998 0.8 L 119.56999999999998 33.25 L 119.56999999999998 33.26 L 119.57999999999998 33.28 L 119.57999999999998 33.29 L 119.58999999999999 33.31 L 119.6 33.32 L 119.61 33.34 L 119.61 33.34 L 119.62 33.370000000000005 C 119.68 33.53 119.71000000000001 33.7 119.71000000000001 33.870000000000005 L 119.71000000000001 33.900000000000006 L 119.71000000000001 33.900000000000006 L 119.71000000000001 33.93000000000001 L 119.71000000000001 33.93000000000001 L 119.71000000000001 33.96000000000001 L 119.71000000000001 33.99000000000001 L 119.71000000000001 33.99000000000001 L 119.71000000000001 33.99000000000001 C 119.7 34.10000000000001 119.68 34.21000000000001 119.64000000000001 34.32000000000001 L 119.64000000000001 34.32000000000001 L 119.63000000000001 34.35000000000001 L 119.63000000000001 34.36000000000001 L 119.62 34.39000000000001 L 119.62 34.39000000000001 C 119.61 34.41000000000001 119.60000000000001 34.43000000000001 119.59 34.45000000000001 L 119.58 34.47000000000001 L 119.58 34.48000000000001 L 119.57 34.500000000000014 L 119.57 34.51000000000001 L 119.57 34.51000000000001 L 39.19999999999999 191.91000000000003 C 64.38 166.49 88.97 141.73000000000002 105.88999999999999 125.47000000000003 C 111.91999999999999 119.67000000000003 117.83999999999999 114.64000000000003 123.60999999999999 110.30000000000003 L 113.92999999999998 90.46000000000002 C 113.58999999999997 89.76000000000002 113.87999999999998 88.91000000000003 114.57999999999998 88.57000000000002 C 115.27999999999999 88.23000000000002 116.12999999999998 88.52000000000002 116.46999999999998 89.22000000000003 L 125.91999999999999 108.59000000000003 C 133.20999999999998 103.31000000000003 140.26 99.15000000000003 147.04 95.99000000000004 L 129.48 59.99000000000004 C 129.14 59.290000000000035 129.42999999999998 58.44000000000004 130.13 58.10000000000004 C 130.82999999999998 57.76000000000003 131.68 58.05000000000004 132.01999999999998 58.750000000000036 L 149.61999999999998 94.83000000000004 C 167.40999999999997 87.11000000000004 183.20999999999998 86.29000000000005 196.20999999999998 90.10000000000004 C 207.30999999999997 93.35000000000004 216.36999999999998 99.98000000000003 222.89 108.56000000000003 C 229.39999999999998 117.12000000000003 233.38 127.63000000000002 234.35 138.68000000000004 C 236.29999999999998 160.89000000000004 226.10999999999999 185.30000000000004 199.85 200.52000000000004 C 199.79 200.56000000000003 199.72 200.60000000000005 199.65 200.64000000000004 C 198.95000000000002 200.98000000000005 198.1 200.69000000000005 197.76000000000002 199.99000000000004 L 189.42000000000002 182.89000000000004 C 184.41000000000003 188.74000000000004 178.29000000000002 194.65000000000003 170.96 200.48000000000005 C 170.48000000000002 200.86000000000004 169.84 200.88000000000005 169.35 200.58000000000004 C 169.31 200.60000000000005 169.26999999999998 200.62000000000003 169.23 200.64000000000004 C 168.53 200.98000000000005 167.67999999999998 200.69000000000005 167.34 199.99000000000004 L 135.99 135.71000000000004 C 134.67000000000002 136.79000000000005 133.33 137.92000000000004 131.99 139.10000000000002 C 114.88000000000001 154.13000000000002 98.63000000000001 173.03000000000003 86.89000000000001 186.68 C 82.02000000000001 192.34 77.92000000000002 197.11 74.84000000000002 200.34 C 74.30000000000001 200.91 73.41000000000001 200.93 72.84000000000002 200.39000000000001 C 72.27000000000002 199.85000000000002 72.25000000000001 198.96 72.79000000000002 198.39000000000001 C 75.83000000000003 195.20000000000002 79.90000000000002 190.46 84.74000000000002 184.84 C 96.53000000000003 171.13 112.85000000000002 152.14 130.13000000000002 136.97 C 131.67000000000002 135.62 133.20000000000002 134.33 134.72000000000003 133.1 L 124.86000000000003 112.88999999999999 C 119.32000000000002 117.08999999999999 113.64000000000003 121.93999999999998 107.84000000000003 127.50999999999999 C 89.51000000000003 145.12 62.19000000000003 172.7 34.87000000000003 200.29 C 34.45000000000003 200.76999999999998 33.750000000000036 200.92999999999998 33.16000000000003 200.63 C 32.46000000000003 200.28 32.19000000000003 199.42 32.540000000000035 198.73 L 116.72000000000004 33.849999999999994 L 102.44000000000004 4.569999999999993 L 2.650000000000034 200.01 C 2.300000000000034 200.70999999999998 1.4400000000000341 200.98 0.7500000000000342 200.63 C 0.05000000000003424 200.28 -0.21999999999996578 199.42 0.1300000000000342 198.73 L 101.21000000000004 0.7599999999999909 z M 188.09 180.14000000000001 L 159.29 121.09000000000002 C 152.73 123.93000000000002 145.68 128.14000000000001 138.28 133.91000000000003 L 169.55 198.02000000000004 C 176.99 192.07000000000005 183.14000000000001 186.06000000000003 188.10000000000002 180.14000000000004 z M 158.06 118.57000000000002 L 148.29 98.55000000000003 C 141.54 101.70000000000003 134.48999999999998 105.87000000000003 127.19 111.20000000000003 L 137.01 131.34000000000003 C 144.39 125.64000000000003 151.45 121.45000000000003 158.06 118.58000000000003 z M 160.68 117.49000000000002 C 170.94 113.50000000000003 180.03 112.74000000000002 187.39000000000001 114.49000000000002 C 193.49 115.94000000000003 198.43 119.09000000000002 201.92000000000002 123.53000000000003 C 205.39000000000001 127.96000000000004 207.41000000000003 133.65000000000003 207.68 140.22000000000003 C 208.15 151.68000000000004 203.26000000000002 165.85000000000002 191.42000000000002 180.52000000000004 L 199.65 197.39000000000004 C 223.94 182.76000000000005 233.38 159.82000000000005 231.55 138.94000000000005 C 230.63000000000002 128.41000000000005 226.84 118.41000000000005 220.66000000000003 110.28000000000006 C 214.49000000000004 102.17000000000006 205.93000000000004 95.91000000000005 195.43000000000004 92.83000000000006 C 183.04000000000002 89.20000000000006 167.94000000000003 89.99000000000005 150.87000000000003 97.38000000000005 L 160.68000000000004 117.49000000000005 z M 190.06 177.72000000000003 C 200.83 164.03000000000003 205.3 150.93000000000004 204.86 140.33000000000004 C 204.62 134.38000000000005 202.81 129.24000000000004 199.70000000000002 125.28000000000004 C 196.61 121.34000000000005 192.20000000000002 118.54000000000005 186.74 117.24000000000004 C 179.92000000000002 115.62000000000003 171.49 116.33000000000004 161.91000000000003 120.02000000000004 L 190.05 177.72000000000003 z" stroke-linecap="round" />
</g>
</g>
</g>
<g transform="matrix(1.9211538461538462 0 0 1.9211538461538462 637.3953512703516 646.184906862334)" id="text-logo"  >
<g style=""  paint-order="stroke"   >
		<g transform="matrix(1 0 0 1 5.684342e-14 0)" id="text-logo-path-0"  >
<path style="stroke: rgb(153,0,0); stroke-width: 5; stroke-dasharray: none; stroke-linecap: butt; stroke-dashoffset: 0; stroke-linejoin: miter; stroke-miterlimit: 4; fill: rgb(153,0,0); fill-rule: nonzero; opacity: 1;"  paint-order="stroke"  transform=" translate(-292.40000000000003, 14.465)" d="M 28.62 0 L 16.15 -29.01 L 12.94 -29.01 L 0.47 0 L 3.61 0 L 7.76 -9.72 L 21.25 -9.72 L 25.48 0 Z M 20.15 -12.39 L 8.94 -12.39 L 14.58 -25.64 Z M 64.22 -29.01 L 61.08 -29.01 L 52.69 -12.7 L 44.38 -29.01 L 41.17 -29.01 L 51.28 -9.72 L 51.28 0 L 54.18 0 L 54.18 -9.72 Z M 113.93 -14.66 C 113.93 -22.9 106.8 -29.48 98.57 -29.48 C 90.17 -29.48 83.27 -22.74 83.27 -14.43 C 83.27 -5.96 90.57 0.55 98.64 0.55 C 106.88 0.55 113.93 -6.12 113.93 -14.66 Z M 111.03 -14.58 C 111.03 -7.61 105.31 -2.27 98.64 -2.27 C 92.06 -2.27 86.18 -7.68 86.18 -14.43 C 86.18 -21.17 91.74 -26.66 98.57 -26.66 C 105.31 -26.66 111.03 -21.25 111.03 -14.58 Z M 166 0 L 166 -29.01 L 161.53 -29.01 L 150.94 -4.31 L 140.36 -29.01 L 135.89 -29.01 L 135.89 0 L 138.79 0 L 138.79 -25.72 L 149.69 0 L 152.2 0 L 163.1 -25.8 L 163.1 0 Z M 191.95 0 L 191.95 -29.01 L 189.05 -29.01 L 189.05 0 Z M 239.47 -14.58 C 239.47 -18.82 237.59 -22.19 235.24 -24.62 C 232.42 -27.6 227.87 -29.01 223.32 -29.01 L 215.01 -29.01 L 215.01 0 L 223.95 0 C 228.81 0 232.81 -1.65 235.16 -4.16 C 238.22 -7.37 239.47 -10.74 239.47 -14.58 Z M 236.57 -14.58 C 236.57 -10.59 234.93 -7.68 232.1 -5.33 C 229.51 -3.14 225.91 -2.67 222.61 -2.67 L 217.91 -2.67 L 217.91 -26.35 L 223.4 -26.35 C 227.55 -26.35 231.16 -25.09 233.67 -22.27 C 235.47 -20.31 236.57 -17.72 236.57 -14.58 Z M 277.19 0 L 277.19 -2.67 L 264.25 -2.67 L 264.25 -13.33 L 276.8 -13.33 L 276.8 -15.92 L 264.25 -15.92 L 264.25 -26.35 L 277.19 -26.35 L 277.19 -29.01 L 261.35 -29.01 L 261.35 0 Z M 353.41 0 L 340.94 -29.01 L 337.72 -29.01 L 325.26 0 L 328.39 0 L 332.55 -9.72 L 346.04 -9.72 L 350.27 0 Z M 344.94 -12.39 L 333.73 -12.39 L 339.37 -25.64 Z M 391.99 -8.23 C 391.99 -11.45 390.26 -14.27 387.28 -15.53 C 389.09 -16.78 390.42 -18.82 390.42 -21.33 C 390.42 -23.37 389.56 -25.01 388.46 -26.35 C 386.97 -28.07 384.38 -29.01 381.24 -29.01 L 373.64 -29.01 L 373.64 0 L 381.56 0 C 385.48 0 388.3 -0.86 390.18 -3.14 C 391.44 -4.7 391.99 -6.12 391.99 -8.23 Z M 387.52 -21.49 C 387.52 -17.8 384.15 -16.62 381.09 -16.62 L 376.54 -16.62 L 376.54 -26.35 C 378.03 -26.35 380.22 -26.43 381.71 -26.43 C 386.26 -26.43 387.52 -23.05 387.52 -21.49 Z M 389.09 -8.23 C 389.09 -4.47 385.95 -2.67 382.11 -2.67 L 376.54 -2.67 L 376.54 -13.96 L 381.4 -13.96 C 385.48 -13.96 389.09 -12.55 389.09 -8.23 Z M 442.64 -14.66 C 442.64 -22.9 435.51 -29.48 427.27 -29.48 C 418.88 -29.48 411.98 -22.74 411.98 -14.43 C 411.98 -5.96 419.27 0.55 427.35 0.55 C 435.58 0.55 442.64 -6.12 442.64 -14.66 Z M 439.74 -14.58 C 439.74 -7.61 434.02 -2.27 427.35 -2.27 C 420.76 -2.27 414.88 -7.68 414.88 -14.43 C 414.88 -21.17 420.45 -26.66 427.27 -26.66 C 434.02 -26.66 439.74 -21.25 439.74 -14.58 Z M 479.5 0 L 479.5 -2.67 L 467.5 -2.67 L 467.5 -29.01 L 464.6 -29.01 L 464.6 0 Z M 525.29 0 L 512.82 -29.01 L 509.61 -29.01 L 497.14 0 L 500.27 0 L 504.43 -9.72 L 517.92 -9.72 L 522.15 0 Z M 516.82 -12.39 L 505.61 -12.39 L 511.25 -25.64 Z M 558.46 -9.25 L 558.46 -29.01 L 555.56 -29.01 L 555.56 -9.25 C 555.56 -6.59 555.56 -5.72 554.93 -4.63 C 554.14 -3.14 552.65 -2.27 550.93 -2.27 C 548.26 -2.27 546.07 -4.08 545.83 -6.9 L 543.01 -6.9 C 543.17 -2.43 546.7 0.55 550.69 0.55 C 553.36 0.55 555.56 -0.63 556.97 -2.43 C 558.22 -3.92 558.46 -5.72 558.46 -9.25 Z M 584.33 0 L 584.33 -29.01 L 581.43 -29.01 L 581.43 0 Z" stroke-linecap="round" />
</g>
</g>
</g>
</svg>